<mxfile host="Electron" modified="2023-06-20T10:29:14.957Z" agent="Mozilla/5.0 (Windows NT 10.0; Win64; x64) AppleWebKit/537.36 (KHTML, like Gecko) draw.io/21.5.0 Chrome/112.0.5615.204 Electron/24.5.1 Safari/537.36" etag="fyuwMWzmkpsQh3NWiK1M" version="21.5.0" type="device">
  <diagram id="C5RBs43oDa-KdzZeNtuy" name="Page-1">
    <mxGraphModel dx="1793" dy="1055" grid="1" gridSize="10" guides="1" tooltips="1" connect="1" arrows="1" fold="1" page="1" pageScale="1" pageWidth="827" pageHeight="1169" math="0" shadow="0">
      <root>
        <mxCell id="WIyWlLk6GJQsqaUBKTNV-0" />
        <mxCell id="WIyWlLk6GJQsqaUBKTNV-1" parent="WIyWlLk6GJQsqaUBKTNV-0" />
        <mxCell id="WIyWlLk6GJQsqaUBKTNV-2" value="" style="rounded=0;html=1;jettySize=auto;orthogonalLoop=1;fontSize=11;endArrow=block;endFill=0;endSize=8;strokeWidth=1;shadow=0;labelBackgroundColor=none;edgeStyle=orthogonalEdgeStyle;entryX=0.5;entryY=0;entryDx=0;entryDy=0;" parent="WIyWlLk6GJQsqaUBKTNV-1" source="WIyWlLk6GJQsqaUBKTNV-3" target="ep0dCrWjloCVZOgT47lu-53" edge="1">
          <mxGeometry relative="1" as="geometry">
            <mxPoint x="220" y="200" as="targetPoint" />
          </mxGeometry>
        </mxCell>
        <mxCell id="WIyWlLk6GJQsqaUBKTNV-3" value="通电" style="rounded=1;whiteSpace=wrap;html=1;fontSize=12;glass=0;strokeWidth=1;shadow=0;" parent="WIyWlLk6GJQsqaUBKTNV-1" vertex="1">
          <mxGeometry x="160" y="80" width="120" height="40" as="geometry" />
        </mxCell>
        <mxCell id="ep0dCrWjloCVZOgT47lu-6" value="是" style="edgeStyle=orthogonalEdgeStyle;rounded=0;orthogonalLoop=1;jettySize=auto;html=1;entryX=0.5;entryY=0;entryDx=0;entryDy=0;" parent="WIyWlLk6GJQsqaUBKTNV-1" source="WIyWlLk6GJQsqaUBKTNV-6" target="ep0dCrWjloCVZOgT47lu-46" edge="1">
          <mxGeometry relative="1" as="geometry">
            <mxPoint x="220" y="415" as="targetPoint" />
          </mxGeometry>
        </mxCell>
        <mxCell id="ep0dCrWjloCVZOgT47lu-7" value="否" style="edgeStyle=orthogonalEdgeStyle;rounded=0;orthogonalLoop=1;jettySize=auto;html=1;entryX=0;entryY=0.5;entryDx=0;entryDy=0;" parent="WIyWlLk6GJQsqaUBKTNV-1" source="WIyWlLk6GJQsqaUBKTNV-6" target="ep0dCrWjloCVZOgT47lu-43" edge="1">
          <mxGeometry relative="1" as="geometry" />
        </mxCell>
        <mxCell id="WIyWlLk6GJQsqaUBKTNV-6" value="按键是否按下" style="rhombus;whiteSpace=wrap;html=1;shadow=0;fontFamily=Helvetica;fontSize=12;align=center;strokeWidth=1;spacing=6;spacingTop=-4;" parent="WIyWlLk6GJQsqaUBKTNV-1" vertex="1">
          <mxGeometry x="170" y="295" width="100" height="80" as="geometry" />
        </mxCell>
        <mxCell id="ep0dCrWjloCVZOgT47lu-5" value="是" style="edgeStyle=orthogonalEdgeStyle;rounded=0;orthogonalLoop=1;jettySize=auto;html=1;entryX=0;entryY=0.5;entryDx=0;entryDy=0;" parent="WIyWlLk6GJQsqaUBKTNV-1" source="ep0dCrWjloCVZOgT47lu-2" target="ep0dCrWjloCVZOgT47lu-51" edge="1">
          <mxGeometry relative="1" as="geometry">
            <mxPoint as="offset" />
          </mxGeometry>
        </mxCell>
        <mxCell id="ep0dCrWjloCVZOgT47lu-60" style="edgeStyle=orthogonalEdgeStyle;rounded=0;orthogonalLoop=1;jettySize=auto;html=1;entryX=0.5;entryY=0;entryDx=0;entryDy=0;" parent="WIyWlLk6GJQsqaUBKTNV-1" source="ep0dCrWjloCVZOgT47lu-2" target="ep0dCrWjloCVZOgT47lu-58" edge="1">
          <mxGeometry relative="1" as="geometry" />
        </mxCell>
        <mxCell id="ep0dCrWjloCVZOgT47lu-2" value="按键按下超过100ms" style="rhombus;whiteSpace=wrap;html=1;shadow=0;fontFamily=Helvetica;fontSize=12;align=center;strokeWidth=1;spacing=6;spacingTop=-4;" parent="WIyWlLk6GJQsqaUBKTNV-1" vertex="1">
          <mxGeometry x="165" y="730" width="150" height="80" as="geometry" />
        </mxCell>
        <mxCell id="ep0dCrWjloCVZOgT47lu-39" value="" style="edgeStyle=orthogonalEdgeStyle;rounded=0;orthogonalLoop=1;jettySize=auto;html=1;entryX=0.5;entryY=0;entryDx=0;entryDy=0;" parent="WIyWlLk6GJQsqaUBKTNV-1" source="ep0dCrWjloCVZOgT47lu-41" target="ep0dCrWjloCVZOgT47lu-40" edge="1">
          <mxGeometry relative="1" as="geometry">
            <mxPoint x="1240" y="340" as="sourcePoint" />
            <mxPoint x="1240" y="630" as="targetPoint" />
          </mxGeometry>
        </mxCell>
        <mxCell id="ep0dCrWjloCVZOgT47lu-40" value="打开输出电源" style="rounded=0;whiteSpace=wrap;html=1;fillColor=#d5e8d4;strokeColor=#82b366;" parent="WIyWlLk6GJQsqaUBKTNV-1" vertex="1">
          <mxGeometry x="1180" y="470" width="120" height="60" as="geometry" />
        </mxCell>
        <mxCell id="ep0dCrWjloCVZOgT47lu-42" value="" style="edgeStyle=orthogonalEdgeStyle;rounded=0;orthogonalLoop=1;jettySize=auto;html=1;entryX=0.5;entryY=0;entryDx=0;entryDy=0;exitX=0.5;exitY=1;exitDx=0;exitDy=0;" parent="WIyWlLk6GJQsqaUBKTNV-1" source="ep0dCrWjloCVZOgT47lu-47" target="ep0dCrWjloCVZOgT47lu-41" edge="1">
          <mxGeometry relative="1" as="geometry">
            <mxPoint x="1240" y="340" as="sourcePoint" />
            <mxPoint x="1240" y="515" as="targetPoint" />
          </mxGeometry>
        </mxCell>
        <mxCell id="ep0dCrWjloCVZOgT47lu-41" value="打开ESP32电源" style="rounded=0;whiteSpace=wrap;html=1;fillColor=#d5e8d4;strokeColor=#82b366;" parent="WIyWlLk6GJQsqaUBKTNV-1" vertex="1">
          <mxGeometry x="1180" y="380" width="120" height="60" as="geometry" />
        </mxCell>
        <mxCell id="ep0dCrWjloCVZOgT47lu-43" value="只充电模式&lt;br style=&quot;border-color: var(--border-color);&quot;&gt;CHARGE_ONLY&lt;br style=&quot;border-color: var(--border-color);&quot;&gt;2" style="shape=process;whiteSpace=wrap;html=1;backgroundOutline=1;" parent="WIyWlLk6GJQsqaUBKTNV-1" vertex="1">
          <mxGeometry x="310" y="305" width="120" height="60" as="geometry" />
        </mxCell>
        <mxCell id="ep0dCrWjloCVZOgT47lu-65" value="" style="edgeStyle=orthogonalEdgeStyle;rounded=0;orthogonalLoop=1;jettySize=auto;html=1;" parent="WIyWlLk6GJQsqaUBKTNV-1" source="ep0dCrWjloCVZOgT47lu-44" target="ep0dCrWjloCVZOgT47lu-63" edge="1">
          <mxGeometry relative="1" as="geometry" />
        </mxCell>
        <mxCell id="ep0dCrWjloCVZOgT47lu-44" value="只充电模式&lt;br&gt;CHARGE_ONLY&lt;br&gt;2" style="shape=process;whiteSpace=wrap;html=1;backgroundOutline=1;" parent="WIyWlLk6GJQsqaUBKTNV-1" vertex="1">
          <mxGeometry x="860" y="290" width="120" height="60" as="geometry" />
        </mxCell>
        <mxCell id="ep0dCrWjloCVZOgT47lu-46" value="完整开机模式&lt;br style=&quot;border-color: var(--border-color);&quot;&gt;FULL&lt;br style=&quot;border-color: var(--border-color);&quot;&gt;4" style="shape=process;whiteSpace=wrap;html=1;backgroundOutline=1;" parent="WIyWlLk6GJQsqaUBKTNV-1" vertex="1">
          <mxGeometry x="160" y="420" width="120" height="60" as="geometry" />
        </mxCell>
        <mxCell id="ep0dCrWjloCVZOgT47lu-47" value="完整开机模式&lt;br&gt;FULL&lt;br&gt;4" style="shape=process;whiteSpace=wrap;html=1;backgroundOutline=1;" parent="WIyWlLk6GJQsqaUBKTNV-1" vertex="1">
          <mxGeometry x="1180" y="290" width="120" height="60" as="geometry" />
        </mxCell>
        <mxCell id="ep0dCrWjloCVZOgT47lu-61" style="edgeStyle=orthogonalEdgeStyle;rounded=0;orthogonalLoop=1;jettySize=auto;html=1;entryX=0.5;entryY=0;entryDx=0;entryDy=0;" parent="WIyWlLk6GJQsqaUBKTNV-1" source="ep0dCrWjloCVZOgT47lu-48" target="ep0dCrWjloCVZOgT47lu-2" edge="1">
          <mxGeometry relative="1" as="geometry" />
        </mxCell>
        <mxCell id="ep0dCrWjloCVZOgT47lu-48" value="按键状态变化" style="rounded=1;whiteSpace=wrap;html=1;fontSize=12;glass=0;strokeWidth=1;shadow=0;" parent="WIyWlLk6GJQsqaUBKTNV-1" vertex="1">
          <mxGeometry x="180" y="640" width="120" height="40" as="geometry" />
        </mxCell>
        <mxCell id="ep0dCrWjloCVZOgT47lu-62" value="是" style="edgeStyle=orthogonalEdgeStyle;rounded=0;orthogonalLoop=1;jettySize=auto;html=1;entryX=0;entryY=0.5;entryDx=0;entryDy=0;" parent="WIyWlLk6GJQsqaUBKTNV-1" source="ep0dCrWjloCVZOgT47lu-51" target="qXnzFkzMFswmkUqWzqiS-8" edge="1">
          <mxGeometry relative="1" as="geometry">
            <mxPoint x="583.04" y="771" as="targetPoint" />
          </mxGeometry>
        </mxCell>
        <mxCell id="ep0dCrWjloCVZOgT47lu-51" value="待机状态&lt;br&gt;或者关机状态&lt;br&gt;或者只充电状态" style="rhombus;whiteSpace=wrap;html=1;shadow=0;fontFamily=Helvetica;fontSize=12;align=center;strokeWidth=1;spacing=6;spacingTop=-4;" parent="WIyWlLk6GJQsqaUBKTNV-1" vertex="1">
          <mxGeometry x="380" y="730" width="150" height="80" as="geometry" />
        </mxCell>
        <mxCell id="ep0dCrWjloCVZOgT47lu-54" value="" style="edgeStyle=orthogonalEdgeStyle;rounded=0;orthogonalLoop=1;jettySize=auto;html=1;exitX=0.5;exitY=1;exitDx=0;exitDy=0;" parent="WIyWlLk6GJQsqaUBKTNV-1" source="ep0dCrWjloCVZOgT47lu-53" target="WIyWlLk6GJQsqaUBKTNV-6" edge="1">
          <mxGeometry relative="1" as="geometry" />
        </mxCell>
        <mxCell id="ep0dCrWjloCVZOgT47lu-53" value="正在初始化&lt;br style=&quot;border-color: var(--border-color);&quot;&gt;INITIALIZING&lt;br style=&quot;border-color: var(--border-color);&quot;&gt;0" style="shape=process;whiteSpace=wrap;html=1;backgroundOutline=1;" parent="WIyWlLk6GJQsqaUBKTNV-1" vertex="1">
          <mxGeometry x="160" y="180" width="120" height="60" as="geometry" />
        </mxCell>
        <mxCell id="ep0dCrWjloCVZOgT47lu-57" value="是" style="edgeStyle=orthogonalEdgeStyle;rounded=0;orthogonalLoop=1;jettySize=auto;html=1;entryX=0;entryY=0.5;entryDx=0;entryDy=0;" parent="WIyWlLk6GJQsqaUBKTNV-1" source="ep0dCrWjloCVZOgT47lu-91" target="qXnzFkzMFswmkUqWzqiS-10" edge="1">
          <mxGeometry relative="1" as="geometry">
            <mxPoint as="offset" />
            <mxPoint x="590" y="890" as="targetPoint" />
          </mxGeometry>
        </mxCell>
        <mxCell id="qXnzFkzMFswmkUqWzqiS-7" value="" style="edgeStyle=orthogonalEdgeStyle;rounded=0;orthogonalLoop=1;jettySize=auto;html=1;" edge="1" parent="WIyWlLk6GJQsqaUBKTNV-1" source="ep0dCrWjloCVZOgT47lu-58" target="qXnzFkzMFswmkUqWzqiS-3">
          <mxGeometry relative="1" as="geometry" />
        </mxCell>
        <mxCell id="ep0dCrWjloCVZOgT47lu-58" value="按键按下超过2s" style="rhombus;whiteSpace=wrap;html=1;shadow=0;fontFamily=Helvetica;fontSize=12;align=center;strokeWidth=1;spacing=6;spacingTop=-4;" parent="WIyWlLk6GJQsqaUBKTNV-1" vertex="1">
          <mxGeometry x="165" y="850" width="150" height="80" as="geometry" />
        </mxCell>
        <mxCell id="ep0dCrWjloCVZOgT47lu-66" value="" style="edgeStyle=orthogonalEdgeStyle;rounded=0;orthogonalLoop=1;jettySize=auto;html=1;" parent="WIyWlLk6GJQsqaUBKTNV-1" source="ep0dCrWjloCVZOgT47lu-63" target="ep0dCrWjloCVZOgT47lu-64" edge="1">
          <mxGeometry relative="1" as="geometry" />
        </mxCell>
        <mxCell id="ep0dCrWjloCVZOgT47lu-63" value="关闭ESP32电源" style="rounded=0;whiteSpace=wrap;html=1;fillColor=#f8cecc;strokeColor=#b85450;" parent="WIyWlLk6GJQsqaUBKTNV-1" vertex="1">
          <mxGeometry x="860" y="380" width="120" height="60" as="geometry" />
        </mxCell>
        <mxCell id="ep0dCrWjloCVZOgT47lu-64" value="关闭输出电源" style="rounded=0;whiteSpace=wrap;html=1;fillColor=#f8cecc;strokeColor=#b85450;" parent="WIyWlLk6GJQsqaUBKTNV-1" vertex="1">
          <mxGeometry x="860" y="470" width="120" height="60" as="geometry" />
        </mxCell>
        <mxCell id="ep0dCrWjloCVZOgT47lu-80" value="" style="edgeStyle=orthogonalEdgeStyle;rounded=0;orthogonalLoop=1;jettySize=auto;html=1;" parent="WIyWlLk6GJQsqaUBKTNV-1" source="ep0dCrWjloCVZOgT47lu-67" target="ep0dCrWjloCVZOgT47lu-78" edge="1">
          <mxGeometry relative="1" as="geometry" />
        </mxCell>
        <mxCell id="ep0dCrWjloCVZOgT47lu-67" value="关机&lt;br&gt;OFF&lt;br&gt;1" style="shape=process;whiteSpace=wrap;html=1;backgroundOutline=1;" parent="WIyWlLk6GJQsqaUBKTNV-1" vertex="1">
          <mxGeometry x="695" y="290" width="120" height="60" as="geometry" />
        </mxCell>
        <mxCell id="ep0dCrWjloCVZOgT47lu-70" value="" style="edgeStyle=orthogonalEdgeStyle;rounded=0;orthogonalLoop=1;jettySize=auto;html=1;" parent="WIyWlLk6GJQsqaUBKTNV-1" source="ep0dCrWjloCVZOgT47lu-68" target="ep0dCrWjloCVZOgT47lu-69" edge="1">
          <mxGeometry relative="1" as="geometry" />
        </mxCell>
        <mxCell id="ep0dCrWjloCVZOgT47lu-68" value="模式改变" style="rounded=1;whiteSpace=wrap;html=1;fontSize=12;glass=0;strokeWidth=1;shadow=0;" parent="WIyWlLk6GJQsqaUBKTNV-1" vertex="1">
          <mxGeometry x="940" y="60" width="120" height="40" as="geometry" />
        </mxCell>
        <mxCell id="ep0dCrWjloCVZOgT47lu-81" style="edgeStyle=orthogonalEdgeStyle;rounded=0;orthogonalLoop=1;jettySize=auto;html=1;" parent="WIyWlLk6GJQsqaUBKTNV-1" source="ep0dCrWjloCVZOgT47lu-69" target="ep0dCrWjloCVZOgT47lu-71" edge="1">
          <mxGeometry relative="1" as="geometry" />
        </mxCell>
        <mxCell id="ep0dCrWjloCVZOgT47lu-82" style="edgeStyle=orthogonalEdgeStyle;rounded=0;orthogonalLoop=1;jettySize=auto;html=1;" parent="WIyWlLk6GJQsqaUBKTNV-1" source="ep0dCrWjloCVZOgT47lu-69" target="ep0dCrWjloCVZOgT47lu-67" edge="1">
          <mxGeometry relative="1" as="geometry" />
        </mxCell>
        <mxCell id="ep0dCrWjloCVZOgT47lu-83" style="edgeStyle=orthogonalEdgeStyle;rounded=0;orthogonalLoop=1;jettySize=auto;html=1;" parent="WIyWlLk6GJQsqaUBKTNV-1" source="ep0dCrWjloCVZOgT47lu-69" target="ep0dCrWjloCVZOgT47lu-44" edge="1">
          <mxGeometry relative="1" as="geometry" />
        </mxCell>
        <mxCell id="ep0dCrWjloCVZOgT47lu-84" style="edgeStyle=orthogonalEdgeStyle;rounded=0;orthogonalLoop=1;jettySize=auto;html=1;" parent="WIyWlLk6GJQsqaUBKTNV-1" source="ep0dCrWjloCVZOgT47lu-69" target="ep0dCrWjloCVZOgT47lu-73" edge="1">
          <mxGeometry relative="1" as="geometry" />
        </mxCell>
        <mxCell id="ep0dCrWjloCVZOgT47lu-85" style="edgeStyle=orthogonalEdgeStyle;rounded=0;orthogonalLoop=1;jettySize=auto;html=1;" parent="WIyWlLk6GJQsqaUBKTNV-1" source="ep0dCrWjloCVZOgT47lu-69" target="ep0dCrWjloCVZOgT47lu-47" edge="1">
          <mxGeometry relative="1" as="geometry" />
        </mxCell>
        <mxCell id="ep0dCrWjloCVZOgT47lu-86" style="edgeStyle=orthogonalEdgeStyle;rounded=0;orthogonalLoop=1;jettySize=auto;html=1;" parent="WIyWlLk6GJQsqaUBKTNV-1" source="ep0dCrWjloCVZOgT47lu-69" target="ep0dCrWjloCVZOgT47lu-72" edge="1">
          <mxGeometry relative="1" as="geometry" />
        </mxCell>
        <mxCell id="ep0dCrWjloCVZOgT47lu-69" value="如果模式是" style="rhombus;whiteSpace=wrap;html=1;shadow=0;fontFamily=Helvetica;fontSize=12;align=center;strokeWidth=1;spacing=6;spacingTop=-4;" parent="WIyWlLk6GJQsqaUBKTNV-1" vertex="1">
          <mxGeometry x="950" y="150" width="100" height="80" as="geometry" />
        </mxCell>
        <mxCell id="ep0dCrWjloCVZOgT47lu-71" value="正在初始化&lt;br&gt;INITIALIZING&lt;br&gt;0" style="shape=process;whiteSpace=wrap;html=1;backgroundOutline=1;" parent="WIyWlLk6GJQsqaUBKTNV-1" vertex="1">
          <mxGeometry x="530" y="290" width="120" height="60" as="geometry" />
        </mxCell>
        <mxCell id="ep0dCrWjloCVZOgT47lu-72" value="OTA&lt;br&gt;5" style="shape=process;whiteSpace=wrap;html=1;backgroundOutline=1;" parent="WIyWlLk6GJQsqaUBKTNV-1" vertex="1">
          <mxGeometry x="1340" y="290" width="120" height="60" as="geometry" />
        </mxCell>
        <mxCell id="ep0dCrWjloCVZOgT47lu-88" value="" style="edgeStyle=orthogonalEdgeStyle;rounded=0;orthogonalLoop=1;jettySize=auto;html=1;" parent="WIyWlLk6GJQsqaUBKTNV-1" source="ep0dCrWjloCVZOgT47lu-73" target="ep0dCrWjloCVZOgT47lu-87" edge="1">
          <mxGeometry relative="1" as="geometry" />
        </mxCell>
        <mxCell id="ep0dCrWjloCVZOgT47lu-73" value="待机&lt;br&gt;IDLE&lt;br&gt;3" style="shape=process;whiteSpace=wrap;html=1;backgroundOutline=1;" parent="WIyWlLk6GJQsqaUBKTNV-1" vertex="1">
          <mxGeometry x="1020" y="290" width="120" height="60" as="geometry" />
        </mxCell>
        <mxCell id="ep0dCrWjloCVZOgT47lu-77" value="" style="edgeStyle=orthogonalEdgeStyle;rounded=0;orthogonalLoop=1;jettySize=auto;html=1;" parent="WIyWlLk6GJQsqaUBKTNV-1" source="ep0dCrWjloCVZOgT47lu-78" target="ep0dCrWjloCVZOgT47lu-79" edge="1">
          <mxGeometry relative="1" as="geometry" />
        </mxCell>
        <mxCell id="ep0dCrWjloCVZOgT47lu-78" value="关闭ESP32电源" style="rounded=0;whiteSpace=wrap;html=1;fillColor=#f8cecc;strokeColor=#b85450;" parent="WIyWlLk6GJQsqaUBKTNV-1" vertex="1">
          <mxGeometry x="695" y="380" width="120" height="60" as="geometry" />
        </mxCell>
        <mxCell id="ep0dCrWjloCVZOgT47lu-79" value="关闭输出电源" style="rounded=0;whiteSpace=wrap;html=1;fillColor=#f8cecc;strokeColor=#b85450;" parent="WIyWlLk6GJQsqaUBKTNV-1" vertex="1">
          <mxGeometry x="695" y="470" width="120" height="60" as="geometry" />
        </mxCell>
        <mxCell id="ep0dCrWjloCVZOgT47lu-90" value="" style="edgeStyle=orthogonalEdgeStyle;rounded=0;orthogonalLoop=1;jettySize=auto;html=1;" parent="WIyWlLk6GJQsqaUBKTNV-1" source="ep0dCrWjloCVZOgT47lu-87" target="ep0dCrWjloCVZOgT47lu-89" edge="1">
          <mxGeometry relative="1" as="geometry" />
        </mxCell>
        <mxCell id="ep0dCrWjloCVZOgT47lu-87" value="关闭输出电源" style="rounded=0;whiteSpace=wrap;html=1;fillColor=#f8cecc;strokeColor=#b85450;" parent="WIyWlLk6GJQsqaUBKTNV-1" vertex="1">
          <mxGeometry x="1020" y="380" width="120" height="60" as="geometry" />
        </mxCell>
        <mxCell id="ep0dCrWjloCVZOgT47lu-89" value="打开ESP32电源" style="rounded=0;whiteSpace=wrap;html=1;fillColor=#d5e8d4;strokeColor=#82b366;" parent="WIyWlLk6GJQsqaUBKTNV-1" vertex="1">
          <mxGeometry x="1020" y="470" width="120" height="60" as="geometry" />
        </mxCell>
        <mxCell id="ep0dCrWjloCVZOgT47lu-92" value="是" style="edgeStyle=orthogonalEdgeStyle;rounded=0;orthogonalLoop=1;jettySize=auto;html=1;entryX=0;entryY=0.5;entryDx=0;entryDy=0;" parent="WIyWlLk6GJQsqaUBKTNV-1" source="ep0dCrWjloCVZOgT47lu-58" target="ep0dCrWjloCVZOgT47lu-91" edge="1">
          <mxGeometry relative="1" as="geometry">
            <mxPoint as="offset" />
            <mxPoint x="315" y="890" as="sourcePoint" />
            <mxPoint x="590" y="890" as="targetPoint" />
          </mxGeometry>
        </mxCell>
        <mxCell id="ep0dCrWjloCVZOgT47lu-91" value="完整开机模式" style="rhombus;whiteSpace=wrap;html=1;shadow=0;fontFamily=Helvetica;fontSize=12;align=center;strokeWidth=1;spacing=6;spacingTop=-4;" parent="WIyWlLk6GJQsqaUBKTNV-1" vertex="1">
          <mxGeometry x="380" y="850" width="150" height="80" as="geometry" />
        </mxCell>
        <mxCell id="qXnzFkzMFswmkUqWzqiS-2" value="是" style="edgeStyle=orthogonalEdgeStyle;rounded=0;orthogonalLoop=1;jettySize=auto;html=1;entryX=0;entryY=0.5;entryDx=0;entryDy=0;" edge="1" parent="WIyWlLk6GJQsqaUBKTNV-1" source="qXnzFkzMFswmkUqWzqiS-6" target="qXnzFkzMFswmkUqWzqiS-11">
          <mxGeometry relative="1" as="geometry">
            <mxPoint as="offset" />
            <mxPoint x="590" y="1000" as="targetPoint" />
          </mxGeometry>
        </mxCell>
        <mxCell id="qXnzFkzMFswmkUqWzqiS-3" value="按键按下超过3s" style="rhombus;whiteSpace=wrap;html=1;shadow=0;fontFamily=Helvetica;fontSize=12;align=center;strokeWidth=1;spacing=6;spacingTop=-4;" vertex="1" parent="WIyWlLk6GJQsqaUBKTNV-1">
          <mxGeometry x="165" y="960" width="150" height="80" as="geometry" />
        </mxCell>
        <mxCell id="qXnzFkzMFswmkUqWzqiS-5" value="是" style="edgeStyle=orthogonalEdgeStyle;rounded=0;orthogonalLoop=1;jettySize=auto;html=1;entryX=0;entryY=0.5;entryDx=0;entryDy=0;" edge="1" parent="WIyWlLk6GJQsqaUBKTNV-1" source="qXnzFkzMFswmkUqWzqiS-3" target="qXnzFkzMFswmkUqWzqiS-6">
          <mxGeometry relative="1" as="geometry">
            <mxPoint as="offset" />
            <mxPoint x="315" y="1000" as="sourcePoint" />
            <mxPoint x="590" y="1000" as="targetPoint" />
          </mxGeometry>
        </mxCell>
        <mxCell id="qXnzFkzMFswmkUqWzqiS-14" style="edgeStyle=orthogonalEdgeStyle;rounded=0;orthogonalLoop=1;jettySize=auto;html=1;entryX=0;entryY=0.5;entryDx=0;entryDy=0;exitX=0.5;exitY=1;exitDx=0;exitDy=0;" edge="1" parent="WIyWlLk6GJQsqaUBKTNV-1" source="qXnzFkzMFswmkUqWzqiS-6" target="qXnzFkzMFswmkUqWzqiS-13">
          <mxGeometry relative="1" as="geometry" />
        </mxCell>
        <mxCell id="qXnzFkzMFswmkUqWzqiS-15" value="否" style="edgeLabel;html=1;align=center;verticalAlign=middle;resizable=0;points=[];" vertex="1" connectable="0" parent="qXnzFkzMFswmkUqWzqiS-14">
          <mxGeometry x="-0.0378" y="-2" relative="1" as="geometry">
            <mxPoint as="offset" />
          </mxGeometry>
        </mxCell>
        <mxCell id="qXnzFkzMFswmkUqWzqiS-6" value="外接插入" style="rhombus;whiteSpace=wrap;html=1;shadow=0;fontFamily=Helvetica;fontSize=12;align=center;strokeWidth=1;spacing=6;spacingTop=-4;" vertex="1" parent="WIyWlLk6GJQsqaUBKTNV-1">
          <mxGeometry x="380" y="960" width="150" height="80" as="geometry" />
        </mxCell>
        <mxCell id="qXnzFkzMFswmkUqWzqiS-16" style="edgeStyle=orthogonalEdgeStyle;rounded=0;orthogonalLoop=1;jettySize=auto;html=1;entryX=0.5;entryY=0;entryDx=0;entryDy=0;" edge="1" parent="WIyWlLk6GJQsqaUBKTNV-1" source="qXnzFkzMFswmkUqWzqiS-8" target="ep0dCrWjloCVZOgT47lu-58">
          <mxGeometry relative="1" as="geometry">
            <Array as="points">
              <mxPoint x="650" y="830" />
              <mxPoint x="240" y="830" />
            </Array>
          </mxGeometry>
        </mxCell>
        <mxCell id="qXnzFkzMFswmkUqWzqiS-8" value="完整开机模式&lt;br style=&quot;border-color: var(--border-color);&quot;&gt;FULL&lt;br style=&quot;border-color: var(--border-color);&quot;&gt;4" style="shape=process;whiteSpace=wrap;html=1;backgroundOutline=1;" vertex="1" parent="WIyWlLk6GJQsqaUBKTNV-1">
          <mxGeometry x="590" y="740" width="120" height="60" as="geometry" />
        </mxCell>
        <mxCell id="qXnzFkzMFswmkUqWzqiS-17" style="edgeStyle=orthogonalEdgeStyle;rounded=0;orthogonalLoop=1;jettySize=auto;html=1;exitX=0.5;exitY=1;exitDx=0;exitDy=0;entryX=0.5;entryY=0;entryDx=0;entryDy=0;" edge="1" parent="WIyWlLk6GJQsqaUBKTNV-1" source="qXnzFkzMFswmkUqWzqiS-10" target="qXnzFkzMFswmkUqWzqiS-3">
          <mxGeometry relative="1" as="geometry" />
        </mxCell>
        <mxCell id="qXnzFkzMFswmkUqWzqiS-10" value="待机&lt;br style=&quot;border-color: var(--border-color);&quot;&gt;IDLE&lt;br style=&quot;border-color: var(--border-color);&quot;&gt;3" style="shape=process;whiteSpace=wrap;html=1;backgroundOutline=1;" vertex="1" parent="WIyWlLk6GJQsqaUBKTNV-1">
          <mxGeometry x="590" y="860" width="120" height="60" as="geometry" />
        </mxCell>
        <mxCell id="qXnzFkzMFswmkUqWzqiS-11" value="只充电模式&lt;br style=&quot;border-color: var(--border-color);&quot;&gt;CHARGE_ONLY&lt;br style=&quot;border-color: var(--border-color);&quot;&gt;2" style="shape=process;whiteSpace=wrap;html=1;backgroundOutline=1;" vertex="1" parent="WIyWlLk6GJQsqaUBKTNV-1">
          <mxGeometry x="590" y="970" width="120" height="60" as="geometry" />
        </mxCell>
        <mxCell id="qXnzFkzMFswmkUqWzqiS-13" value="关机&lt;br style=&quot;border-color: var(--border-color);&quot;&gt;OFF&lt;br style=&quot;border-color: var(--border-color);&quot;&gt;1" style="shape=process;whiteSpace=wrap;html=1;backgroundOutline=1;" vertex="1" parent="WIyWlLk6GJQsqaUBKTNV-1">
          <mxGeometry x="590" y="1060" width="120" height="60" as="geometry" />
        </mxCell>
        <mxCell id="qXnzFkzMFswmkUqWzqiS-21" style="edgeStyle=orthogonalEdgeStyle;rounded=0;orthogonalLoop=1;jettySize=auto;html=1;entryX=0.5;entryY=0;entryDx=0;entryDy=0;" edge="1" parent="WIyWlLk6GJQsqaUBKTNV-1" source="qXnzFkzMFswmkUqWzqiS-22" target="qXnzFkzMFswmkUqWzqiS-20">
          <mxGeometry relative="1" as="geometry" />
        </mxCell>
        <mxCell id="qXnzFkzMFswmkUqWzqiS-24" value="是" style="edgeLabel;html=1;align=center;verticalAlign=middle;resizable=0;points=[];" vertex="1" connectable="0" parent="qXnzFkzMFswmkUqWzqiS-21">
          <mxGeometry x="-0.2913" y="1" relative="1" as="geometry">
            <mxPoint as="offset" />
          </mxGeometry>
        </mxCell>
        <mxCell id="qXnzFkzMFswmkUqWzqiS-18" value="Wi-Fi控制LED状态定时器" style="rounded=1;whiteSpace=wrap;html=1;fontSize=12;glass=0;strokeWidth=1;shadow=0;" vertex="1" parent="WIyWlLk6GJQsqaUBKTNV-1">
          <mxGeometry x="980" y="621" width="120" height="40" as="geometry" />
        </mxCell>
        <mxCell id="qXnzFkzMFswmkUqWzqiS-30" value="" style="edgeStyle=orthogonalEdgeStyle;rounded=0;orthogonalLoop=1;jettySize=auto;html=1;" edge="1" parent="WIyWlLk6GJQsqaUBKTNV-1" target="qXnzFkzMFswmkUqWzqiS-29">
          <mxGeometry relative="1" as="geometry">
            <mxPoint x="1041" y="821" as="sourcePoint" />
          </mxGeometry>
        </mxCell>
        <mxCell id="qXnzFkzMFswmkUqWzqiS-37" value="是" style="edgeLabel;html=1;align=center;verticalAlign=middle;resizable=0;points=[];" vertex="1" connectable="0" parent="qXnzFkzMFswmkUqWzqiS-30">
          <mxGeometry x="0.6558" relative="1" as="geometry">
            <mxPoint as="offset" />
          </mxGeometry>
        </mxCell>
        <mxCell id="qXnzFkzMFswmkUqWzqiS-20" value="如果待机状态&lt;br&gt;或者完整开机状态" style="rhombus;whiteSpace=wrap;html=1;shadow=0;fontFamily=Helvetica;fontSize=12;align=center;strokeWidth=1;spacing=6;spacingTop=-4;" vertex="1" parent="WIyWlLk6GJQsqaUBKTNV-1">
          <mxGeometry x="940" y="810" width="202.5" height="70" as="geometry" />
        </mxCell>
        <mxCell id="qXnzFkzMFswmkUqWzqiS-23" value="" style="edgeStyle=orthogonalEdgeStyle;rounded=0;orthogonalLoop=1;jettySize=auto;html=1;entryX=0.5;entryY=0;entryDx=0;entryDy=0;" edge="1" parent="WIyWlLk6GJQsqaUBKTNV-1" source="qXnzFkzMFswmkUqWzqiS-18" target="qXnzFkzMFswmkUqWzqiS-22">
          <mxGeometry relative="1" as="geometry">
            <mxPoint x="1040" y="661" as="sourcePoint" />
            <mxPoint x="1040" y="761" as="targetPoint" />
          </mxGeometry>
        </mxCell>
        <mxCell id="qXnzFkzMFswmkUqWzqiS-22" value="如果Wi-Fi链接状态变化" style="rhombus;whiteSpace=wrap;html=1;shadow=0;fontFamily=Helvetica;fontSize=12;align=center;strokeWidth=1;spacing=6;spacingTop=-4;" vertex="1" parent="WIyWlLk6GJQsqaUBKTNV-1">
          <mxGeometry x="945" y="706" width="190" height="70" as="geometry" />
        </mxCell>
        <mxCell id="qXnzFkzMFswmkUqWzqiS-25" value="状态LED设置为长亮1" style="rounded=0;whiteSpace=wrap;html=1;fillColor=#d5e8d4;strokeColor=#82b366;" vertex="1" parent="WIyWlLk6GJQsqaUBKTNV-1">
          <mxGeometry x="880" y="1060" width="120" height="60" as="geometry" />
        </mxCell>
        <mxCell id="qXnzFkzMFswmkUqWzqiS-27" value="状态LED设置为慢闪2" style="rounded=0;whiteSpace=wrap;html=1;fillColor=#fff2cc;strokeColor=#d6b656;" vertex="1" parent="WIyWlLk6GJQsqaUBKTNV-1">
          <mxGeometry x="1080" y="1060" width="120" height="60" as="geometry" />
        </mxCell>
        <mxCell id="qXnzFkzMFswmkUqWzqiS-32" style="edgeStyle=orthogonalEdgeStyle;rounded=0;orthogonalLoop=1;jettySize=auto;html=1;" edge="1" parent="WIyWlLk6GJQsqaUBKTNV-1" source="qXnzFkzMFswmkUqWzqiS-29" target="qXnzFkzMFswmkUqWzqiS-25">
          <mxGeometry relative="1" as="geometry" />
        </mxCell>
        <mxCell id="qXnzFkzMFswmkUqWzqiS-34" value="是" style="edgeLabel;html=1;align=center;verticalAlign=middle;resizable=0;points=[];" vertex="1" connectable="0" parent="qXnzFkzMFswmkUqWzqiS-32">
          <mxGeometry x="0.0775" relative="1" as="geometry">
            <mxPoint as="offset" />
          </mxGeometry>
        </mxCell>
        <mxCell id="qXnzFkzMFswmkUqWzqiS-33" style="edgeStyle=orthogonalEdgeStyle;rounded=0;orthogonalLoop=1;jettySize=auto;html=1;" edge="1" parent="WIyWlLk6GJQsqaUBKTNV-1" source="qXnzFkzMFswmkUqWzqiS-29" target="qXnzFkzMFswmkUqWzqiS-27">
          <mxGeometry relative="1" as="geometry" />
        </mxCell>
        <mxCell id="qXnzFkzMFswmkUqWzqiS-35" value="否" style="edgeLabel;html=1;align=center;verticalAlign=middle;resizable=0;points=[];" vertex="1" connectable="0" parent="qXnzFkzMFswmkUqWzqiS-33">
          <mxGeometry x="0.2517" y="3" relative="1" as="geometry">
            <mxPoint as="offset" />
          </mxGeometry>
        </mxCell>
        <mxCell id="qXnzFkzMFswmkUqWzqiS-29" value="已连接" style="rhombus;whiteSpace=wrap;html=1;shadow=0;fontFamily=Helvetica;fontSize=12;align=center;strokeWidth=1;spacing=6;spacingTop=-4;" vertex="1" parent="WIyWlLk6GJQsqaUBKTNV-1">
          <mxGeometry x="940" y="921" width="202.5" height="70" as="geometry" />
        </mxCell>
        <mxCell id="qXnzFkzMFswmkUqWzqiS-40" value="" style="edgeStyle=orthogonalEdgeStyle;rounded=0;orthogonalLoop=1;jettySize=auto;html=1;" edge="1" parent="WIyWlLk6GJQsqaUBKTNV-1" source="qXnzFkzMFswmkUqWzqiS-38" target="qXnzFkzMFswmkUqWzqiS-39">
          <mxGeometry relative="1" as="geometry" />
        </mxCell>
        <mxCell id="qXnzFkzMFswmkUqWzqiS-38" value="LED状态控制定时器" style="rounded=1;whiteSpace=wrap;html=1;fontSize=12;glass=0;strokeWidth=1;shadow=0;" vertex="1" parent="WIyWlLk6GJQsqaUBKTNV-1">
          <mxGeometry x="1350" y="631" width="120" height="40" as="geometry" />
        </mxCell>
        <mxCell id="qXnzFkzMFswmkUqWzqiS-42" style="edgeStyle=orthogonalEdgeStyle;rounded=0;orthogonalLoop=1;jettySize=auto;html=1;entryX=0.5;entryY=0;entryDx=0;entryDy=0;" edge="1" parent="WIyWlLk6GJQsqaUBKTNV-1" source="qXnzFkzMFswmkUqWzqiS-39" target="qXnzFkzMFswmkUqWzqiS-41">
          <mxGeometry relative="1" as="geometry" />
        </mxCell>
        <mxCell id="qXnzFkzMFswmkUqWzqiS-43" value="是" style="edgeLabel;html=1;align=center;verticalAlign=middle;resizable=0;points=[];" vertex="1" connectable="0" parent="qXnzFkzMFswmkUqWzqiS-42">
          <mxGeometry x="-0.199" y="-3" relative="1" as="geometry">
            <mxPoint as="offset" />
          </mxGeometry>
        </mxCell>
        <mxCell id="qXnzFkzMFswmkUqWzqiS-45" style="edgeStyle=orthogonalEdgeStyle;rounded=0;orthogonalLoop=1;jettySize=auto;html=1;entryX=0.5;entryY=0;entryDx=0;entryDy=0;" edge="1" parent="WIyWlLk6GJQsqaUBKTNV-1" source="qXnzFkzMFswmkUqWzqiS-39" target="qXnzFkzMFswmkUqWzqiS-44">
          <mxGeometry relative="1" as="geometry" />
        </mxCell>
        <mxCell id="qXnzFkzMFswmkUqWzqiS-39" value="如果关机状态&lt;br&gt;或者只充电状态" style="rhombus;whiteSpace=wrap;html=1;shadow=0;fontFamily=Helvetica;fontSize=12;align=center;strokeWidth=1;spacing=6;spacingTop=-4;" vertex="1" parent="WIyWlLk6GJQsqaUBKTNV-1">
          <mxGeometry x="1308.75" y="710" width="202.5" height="70" as="geometry" />
        </mxCell>
        <mxCell id="qXnzFkzMFswmkUqWzqiS-41" value="状态LED设置为关闭0" style="rounded=0;whiteSpace=wrap;html=1;fillColor=#f8cecc;strokeColor=#b85450;" vertex="1" parent="WIyWlLk6GJQsqaUBKTNV-1">
          <mxGeometry x="1260" y="815" width="120" height="60" as="geometry" />
        </mxCell>
        <mxCell id="qXnzFkzMFswmkUqWzqiS-47" value="是" style="edgeStyle=orthogonalEdgeStyle;rounded=0;orthogonalLoop=1;jettySize=auto;html=1;" edge="1" parent="WIyWlLk6GJQsqaUBKTNV-1" source="qXnzFkzMFswmkUqWzqiS-44" target="qXnzFkzMFswmkUqWzqiS-46">
          <mxGeometry relative="1" as="geometry" />
        </mxCell>
        <mxCell id="qXnzFkzMFswmkUqWzqiS-49" value="否" style="edgeStyle=orthogonalEdgeStyle;rounded=0;orthogonalLoop=1;jettySize=auto;html=1;" edge="1" parent="WIyWlLk6GJQsqaUBKTNV-1" source="qXnzFkzMFswmkUqWzqiS-44" target="qXnzFkzMFswmkUqWzqiS-48">
          <mxGeometry relative="1" as="geometry" />
        </mxCell>
        <mxCell id="qXnzFkzMFswmkUqWzqiS-44" value="如果LED状态是关闭" style="rhombus;whiteSpace=wrap;html=1;shadow=0;fontFamily=Helvetica;fontSize=12;align=center;strokeWidth=1;spacing=6;spacingTop=-4;" vertex="1" parent="WIyWlLk6GJQsqaUBKTNV-1">
          <mxGeometry x="1430" y="810" width="190" height="70" as="geometry" />
        </mxCell>
        <mxCell id="qXnzFkzMFswmkUqWzqiS-46" value="状态LED设置为关闭0" style="rounded=0;whiteSpace=wrap;html=1;fillColor=#f8cecc;strokeColor=#b85450;" vertex="1" parent="WIyWlLk6GJQsqaUBKTNV-1">
          <mxGeometry x="1670" y="815" width="120" height="60" as="geometry" />
        </mxCell>
        <mxCell id="qXnzFkzMFswmkUqWzqiS-52" value="" style="edgeStyle=orthogonalEdgeStyle;rounded=0;orthogonalLoop=1;jettySize=auto;html=1;" edge="1" parent="WIyWlLk6GJQsqaUBKTNV-1" source="qXnzFkzMFswmkUqWzqiS-48" target="qXnzFkzMFswmkUqWzqiS-51">
          <mxGeometry relative="1" as="geometry" />
        </mxCell>
        <mxCell id="qXnzFkzMFswmkUqWzqiS-54" value="否" style="edgeStyle=orthogonalEdgeStyle;rounded=0;orthogonalLoop=1;jettySize=auto;html=1;" edge="1" parent="WIyWlLk6GJQsqaUBKTNV-1" source="qXnzFkzMFswmkUqWzqiS-48" target="qXnzFkzMFswmkUqWzqiS-53">
          <mxGeometry relative="1" as="geometry" />
        </mxCell>
        <mxCell id="qXnzFkzMFswmkUqWzqiS-48" value="如果LED状态是打开" style="rhombus;whiteSpace=wrap;html=1;shadow=0;fontFamily=Helvetica;fontSize=12;align=center;strokeWidth=1;spacing=6;spacingTop=-4;" vertex="1" parent="WIyWlLk6GJQsqaUBKTNV-1">
          <mxGeometry x="1430" y="921" width="190" height="70" as="geometry" />
        </mxCell>
        <mxCell id="qXnzFkzMFswmkUqWzqiS-50" value="状态LED设置为慢闪2" style="rounded=0;whiteSpace=wrap;html=1;fillColor=#fff2cc;strokeColor=#d6b656;" vertex="1" parent="WIyWlLk6GJQsqaUBKTNV-1">
          <mxGeometry x="1670" y="1045" width="120" height="60" as="geometry" />
        </mxCell>
        <mxCell id="qXnzFkzMFswmkUqWzqiS-51" value="状态LED设置为长亮1" style="rounded=0;whiteSpace=wrap;html=1;fillColor=#d5e8d4;strokeColor=#82b366;" vertex="1" parent="WIyWlLk6GJQsqaUBKTNV-1">
          <mxGeometry x="1670" y="926" width="120" height="60" as="geometry" />
        </mxCell>
        <mxCell id="qXnzFkzMFswmkUqWzqiS-55" value="" style="edgeStyle=orthogonalEdgeStyle;rounded=0;orthogonalLoop=1;jettySize=auto;html=1;" edge="1" parent="WIyWlLk6GJQsqaUBKTNV-1" source="qXnzFkzMFswmkUqWzqiS-53" target="qXnzFkzMFswmkUqWzqiS-50">
          <mxGeometry relative="1" as="geometry" />
        </mxCell>
        <mxCell id="qXnzFkzMFswmkUqWzqiS-53" value="如果LED状态是打开" style="rhombus;whiteSpace=wrap;html=1;shadow=0;fontFamily=Helvetica;fontSize=12;align=center;strokeWidth=1;spacing=6;spacingTop=-4;" vertex="1" parent="WIyWlLk6GJQsqaUBKTNV-1">
          <mxGeometry x="1430" y="1040" width="190" height="70" as="geometry" />
        </mxCell>
      </root>
    </mxGraphModel>
  </diagram>
</mxfile>
